<svg id="Camada_1" data-name="Camada 1" xmlns="http://www.w3.org/2000/svg" xmlns:xlink="http://www.w3.org/1999/xlink" viewBox="0 0 341 111"><defs><style>.cls-1{fill:#009ee2;}.cls-2{fill:#9c9b9b;}.cls-3{fill:#1d70b7;}.cls-4{fill:url(#Gradiente_sem_nome_28);}.cls-5{fill:#6f6f6e;}.cls-6{fill:url(#Gradiente_sem_nome_35);}</style><linearGradient id="Gradiente_sem_nome_28" x1="-32.39" y1="1058.93" x2="-82.78" y2="1106.68" gradientTransform="translate(1121.97 108.52) rotate(90)" gradientUnits="userSpaceOnUse"><stop offset="0" stop-color="#1d70b7"/><stop offset="1" stop-color="#009ee2"/></linearGradient><linearGradient id="Gradiente_sem_nome_35" x1="268.6" y1="183.32" x2="311.08" y2="139.06" gradientTransform="translate(-216.53 -101.86)" gradientUnits="userSpaceOnUse"><stop offset="0" stop-color="#6f6f6e"/><stop offset="1" stop-color="#9c9b9b"/></linearGradient></defs><title>logotipo_icetec</title><path class="cls-1" d="M141.62,37.76a.84.84,0,0,1,.35.12.39.39,0,0,1,.07.32l-4.52,25.59a20.63,20.63,0,0,1-1.09,3.89,7.75,7.75,0,0,1-2.61,3.39,8.71,8.71,0,0,1-3.61,1.61,22.34,22.34,0,0,1-3.4.43.33.33,0,0,1-.29-.12.37.37,0,0,1-.07-.31L131,47.08a21.31,21.31,0,0,1,1.09-3.88,7.67,7.67,0,0,1,2.62-3.39,9.23,9.23,0,0,1,3.57-1.58A21.19,21.19,0,0,1,141.62,37.76Z"/><path class="cls-1" d="M178.74,64.73c.08,0,.1.14.07.31a19,19,0,0,1-1,3,7.78,7.78,0,0,1-2.14,3,7.45,7.45,0,0,1-3.7,1.77,23.31,23.31,0,0,1-3.94.34h-9a37.24,37.24,0,0,1-7.66-.65,12.55,12.55,0,0,1-5-2.08,12.22,12.22,0,0,1-4.32-6.27,18.48,18.48,0,0,1-.36-8.83,22.45,22.45,0,0,1,3.42-8.57,20,20,0,0,1,6.53-6.22h.06a19,19,0,0,1,5.67-2.08,40.37,40.37,0,0,1,7.85-.65h17.9a.37.37,0,0,1,.29.12.43.43,0,0,1,.07.32,20.76,20.76,0,0,1-1,2.95,7.81,7.81,0,0,1-2.14,3,7.64,7.64,0,0,1-3.69,1.77,23.51,23.51,0,0,1-3.95.34h-8.26q-6.53,0-9.43,2c-2,1.33-3.26,3.69-3.85,7.08a13.54,13.54,0,0,0-.2,4.47,4.72,4.72,0,0,0,1.4,2.8,6.67,6.67,0,0,0,3.24,1.52,26.42,26.42,0,0,0,5.6.47h17.15A.29.29,0,0,1,178.74,64.73Z"/><path class="cls-1" d="M216.52,64.73c.08,0,.1.14.07.31a19,19,0,0,1-1,3,7.89,7.89,0,0,1-2.14,3,7.45,7.45,0,0,1-3.7,1.77,23.4,23.4,0,0,1-3.94.34h-9a37.24,37.24,0,0,1-7.66-.65,12.67,12.67,0,0,1-5-2.08,12.3,12.3,0,0,1-4.37-6.27,18.6,18.6,0,0,1-.37-8.83,22.33,22.33,0,0,1,3.44-8.57,20,20,0,0,1,6.57-6.22h.06a19.14,19.14,0,0,1,5.68-2.08,40.37,40.37,0,0,1,7.85-.65H221a.34.34,0,0,1,.28.12.36.36,0,0,1,.07.32,19.4,19.4,0,0,1-.95,2.95,7.92,7.92,0,0,1-2.14,3,7.63,7.63,0,0,1-3.7,1.77,23.31,23.31,0,0,1-3.94.34h-8.26c-4.35,0-7.5.67-9.43,2a7.74,7.74,0,0,0-2.67,3.15h24.92c.16,0,.26,0,.29.12a.37.37,0,0,1,.07.31,19.69,19.69,0,0,1-.94,2.87,7.31,7.31,0,0,1-2.12,2.86,7.15,7.15,0,0,1-3.58,1.76,21.51,21.51,0,0,1-3.75.34H188.84a4.45,4.45,0,0,0,2.52,3.67q2.26,1.24,7.73,1.24h17.15A.29.29,0,0,1,216.52,64.73Z"/><path class="cls-2" d="M262.82,37.88a.45.45,0,0,1,0,.38,19.83,19.83,0,0,1-.95,2.92,7.48,7.48,0,0,1-2.13,2.92,7.63,7.63,0,0,1-3.7,1.77,23.4,23.4,0,0,1-3.94.34H245l-3.11,17.65a21.54,21.54,0,0,1-1.09,3.88,7.72,7.72,0,0,1-2.62,3.39,8.58,8.58,0,0,1-3.61,1.61,23.68,23.68,0,0,1-3.4.44c-.16,0-.26,0-.29-.13a.39.39,0,0,1-.07-.31l4.68-26.53-15.15-.06A.35.35,0,0,1,220,46a.39.39,0,0,1-.07-.31,28.41,28.41,0,0,1,1-3,8,8,0,0,1,5.73-4.66,23.25,23.25,0,0,1,4-.34h31.81A.84.84,0,0,1,262.82,37.88Z"/><path class="cls-2" d="M294.25,64.73c.08,0,.1.14.07.31a19,19,0,0,1-1,3,7.78,7.78,0,0,1-2.14,3,7.45,7.45,0,0,1-3.7,1.77,23.31,23.31,0,0,1-3.94.34h-9a37.07,37.07,0,0,1-7.65-.65,12.65,12.65,0,0,1-5-2.08,12.23,12.23,0,0,1-4.36-6.27,18.35,18.35,0,0,1-.37-8.83,22.17,22.17,0,0,1,3.44-8.57,19.87,19.87,0,0,1,6.56-6.22h.06A19.14,19.14,0,0,1,273,38.41a40.44,40.44,0,0,1,7.85-.65h17.9a.37.37,0,0,1,.29.12.43.43,0,0,1,.07.32,20.76,20.76,0,0,1-1,2.95,7.81,7.81,0,0,1-2.14,3,7.64,7.64,0,0,1-3.69,1.77,23.43,23.43,0,0,1-3.95.34h-8.26q-6.53,0-9.43,2A7.74,7.74,0,0,0,268,51.37h24.92c.17,0,.26,0,.29.12a.37.37,0,0,1,.07.31,19.69,19.69,0,0,1-.94,2.87,7.31,7.31,0,0,1-2.12,2.86,7.16,7.16,0,0,1-3.57,1.76,21.71,21.71,0,0,1-3.76.34H266.57a4.45,4.45,0,0,0,2.52,3.67q2.27,1.24,7.74,1.24H294A.28.28,0,0,1,294.25,64.73Z"/><path class="cls-2" d="M333,64.73c.07,0,.09.14.06.31a19,19,0,0,1-1,3,7.78,7.78,0,0,1-2.14,3,7.45,7.45,0,0,1-3.7,1.77,23.31,23.31,0,0,1-3.94.34h-9a37.07,37.07,0,0,1-7.65-.65,12.49,12.49,0,0,1-5-2.08,12.23,12.23,0,0,1-4.33-6.27,18.48,18.48,0,0,1-.36-8.83,22.31,22.31,0,0,1,3.43-8.57,19.78,19.78,0,0,1,6.53-6.22H306a19,19,0,0,1,5.66-2.08,40.44,40.44,0,0,1,7.85-.65h17.9a.37.37,0,0,1,.29.12.39.39,0,0,1,.07.32,20.76,20.76,0,0,1-1,2.95,7.89,7.89,0,0,1-2.13,3,7.71,7.71,0,0,1-3.7,1.77,23.43,23.43,0,0,1-4,.34h-8.26q-6.52,0-9.42,2c-2,1.33-3.26,3.69-3.86,7.08a13.82,13.82,0,0,0-.2,4.47,4.78,4.78,0,0,0,1.4,2.8,6.71,6.71,0,0,0,3.24,1.52,26.53,26.53,0,0,0,5.61.47h17.15A.31.31,0,0,1,333,64.73Z"/><path class="cls-1" d="M126.2,87.74l1.49-.14V88a2.49,2.49,0,0,0,.3,1.21,2,2,0,0,0,1,.85,4.17,4.17,0,0,0,1.66.3,3.18,3.18,0,0,0,2.09-.6,1.76,1.76,0,0,0,.72-1.37,1.43,1.43,0,0,0-.38-1A7.28,7.28,0,0,0,131,86.22a16.26,16.26,0,0,1-1.84-.89A3.57,3.57,0,0,1,128,84.22a2.56,2.56,0,0,1-.37-1.36,2.82,2.82,0,0,1,.49-1.59,3,3,0,0,1,1.41-1.08,5.57,5.57,0,0,1,2.1-.37,5.21,5.21,0,0,1,2.35.47,3,3,0,0,1,1.39,1.24,3.09,3.09,0,0,1,.44,1.49s0,.13,0,.23l-1.47.12a2.47,2.47,0,0,0-.09-.75,1.94,1.94,0,0,0-.48-.81,2.3,2.3,0,0,0-.9-.52,3.7,3.7,0,0,0-1.28-.2,3,3,0,0,0-1.94.56,1.47,1.47,0,0,0-.32,1.89,2.26,2.26,0,0,0,.79.65c.27.15.91.45,1.93.89a12.94,12.94,0,0,1,1.69.86,2.94,2.94,0,0,1,1,1,2.69,2.69,0,0,1,.34,1.34,2.84,2.84,0,0,1-.57,1.71,3.68,3.68,0,0,1-1.56,1.21,5.87,5.87,0,0,1-2.28.43,5.42,5.42,0,0,1-3.17-.85A3.42,3.42,0,0,1,126.2,87.74Z"/><path class="cls-1" d="M152.17,86.65a7,7,0,0,1,1.76-4.94,5.66,5.66,0,0,1,4.28-1.89,4.61,4.61,0,0,1,3.48,1.39A5.12,5.12,0,0,1,163,84.94a7.12,7.12,0,0,1-.67,3.09,6.8,6.8,0,0,1-1.28,1.84,5.94,5.94,0,0,1-1.65,1.2,5.73,5.73,0,0,1-2.48.56,4.89,4.89,0,0,1-2.5-.66,4.21,4.21,0,0,1-1.7-1.82A5.56,5.56,0,0,1,152.17,86.65Zm1.5.08a4,4,0,0,0,.42,1.84,3.1,3.1,0,0,0,1.24,1.32,3.41,3.41,0,0,0,1.74.48,3.54,3.54,0,0,0,1.67-.42,4.74,4.74,0,0,0,1.42-1.16,5.53,5.53,0,0,0,1-1.83,6.56,6.56,0,0,0,.37-2.14,3.8,3.8,0,0,0-1-2.72,3.13,3.13,0,0,0-2.36-1A4.15,4.15,0,0,0,155,82.62,6,6,0,0,0,153.67,86.73Z"/><path class="cls-1" d="M178.75,91.43,181.14,80h1.53l-2.12,10.13h5.93l-.27,1.29Z"/><path class="cls-1" d="M205.15,80h1.52l-1.46,7a7.08,7.08,0,0,0-.18,1.29,1.77,1.77,0,0,0,.72,1.48,2.88,2.88,0,0,0,1.83.57A3.36,3.36,0,0,0,209.2,90a2.88,2.88,0,0,0,1.19-1.18,9.36,9.36,0,0,0,.79-2.48L212.49,80H214l-1.4,6.7a8.92,8.92,0,0,1-.94,2.72,4.44,4.44,0,0,1-1.62,1.6,4.71,4.71,0,0,1-2.41.61,5.44,5.44,0,0,1-2.23-.43,3,3,0,0,1-1.89-2.9,10.84,10.84,0,0,1,.32-2.07Z"/><path class="cls-1" d="M232.12,91.43l2.11-10.12h-3.74l.27-1.3h9l-.27,1.3h-3.72l-2.11,10.12Z"/><path class="cls-1" d="M254.15,91.43,256.54,80h1.52l-2.38,11.42Z"/><path class="cls-1" d="M274.13,86.65a6.92,6.92,0,0,1,1.76-4.94,5.64,5.64,0,0,1,4.28-1.89,4.63,4.63,0,0,1,3.48,1.39A5.17,5.17,0,0,1,285,84.94a7,7,0,0,1-.68,3.09A6.55,6.55,0,0,1,283,89.87a6.08,6.08,0,0,1-1.65,1.2,5.73,5.73,0,0,1-2.48.56,4.84,4.84,0,0,1-2.5-.66,4.15,4.15,0,0,1-1.7-1.82A5.56,5.56,0,0,1,274.13,86.65Zm1.5.08a4,4,0,0,0,.42,1.84,3,3,0,0,0,1.24,1.32,3.41,3.41,0,0,0,1.74.48A3.54,3.54,0,0,0,280.7,90a4.87,4.87,0,0,0,1.42-1.16,5.53,5.53,0,0,0,1-1.83,6.81,6.81,0,0,0,.36-2.14,3.79,3.79,0,0,0-1-2.72,3.13,3.13,0,0,0-2.36-1A4.14,4.14,0,0,0,277,82.62,6,6,0,0,0,275.63,86.73Z"/><path class="cls-1" d="M300.85,91.43,303.24,80h1.48l1.93,4.29c.58,1.31,1.05,2.41,1.39,3.3q.3.78.69,2.1c.14-1,.31-2,.53-3l1.4-6.72h1.49l-2.39,11.42h-1.51l-2.83-6.59a31.47,31.47,0,0,1-1.18-3.08q-.12,1.11-.45,2.73l-1.45,6.94Z"/><path class="cls-1" d="M327.71,87.74l1.5-.14,0,.4a2.49,2.49,0,0,0,.3,1.21,2,2,0,0,0,1,.85,4.22,4.22,0,0,0,1.67.3,3.19,3.19,0,0,0,2.09-.6,1.76,1.76,0,0,0,.72-1.37,1.47,1.47,0,0,0-.38-1,7.24,7.24,0,0,0-2.13-1.19,17.2,17.2,0,0,1-1.84-.89,3.79,3.79,0,0,1-1.14-1.11,2.56,2.56,0,0,1-.36-1.36,2.81,2.81,0,0,1,.48-1.59A3,3,0,0,1,331,80.19a5.56,5.56,0,0,1,2.09-.37,5.26,5.26,0,0,1,2.36.47,3,3,0,0,1,1.39,1.24A3.07,3.07,0,0,1,337.3,83a2.2,2.2,0,0,1,0,.23l-1.47.12a2.47,2.47,0,0,0-.09-.75,1.94,1.94,0,0,0-.48-.81,2.3,2.3,0,0,0-.9-.52,3.7,3.7,0,0,0-1.28-.2,3,3,0,0,0-1.94.56,1.39,1.39,0,0,0-.53,1.14,1.3,1.3,0,0,0,.22.75,2.17,2.17,0,0,0,.79.65c.27.15.91.45,1.92.89a13.26,13.26,0,0,1,1.7.86,3.15,3.15,0,0,1,1,1,2.69,2.69,0,0,1,.33,1.34A2.89,2.89,0,0,1,336,90a3.71,3.71,0,0,1-1.57,1.21,5.79,5.79,0,0,1-2.28.43,5.39,5.39,0,0,1-3.16-.85A3.45,3.45,0,0,1,327.71,87.74Z"/><path class="cls-3" d="M35.15,55.8a26.45,26.45,0,0,0,0,37.41h0l4.68-4.68L37.49,86.2l7-7L41,75.67l7-7Z"/><rect class="cls-3" x="47.05" y="72.37" width="6.61" height="6.61" transform="translate(68.26 -13.44) rotate(45)"/><rect class="cls-3" x="43.54" y="82.89" width="6.61" height="6.61" transform="translate(74.67 -7.88) rotate(45)"/><rect class="cls-3" x="37.69" y="93.41" width="6.61" height="6.61" transform="translate(80.4 -0.66) rotate(45)"/><rect class="cls-3" x="47.87" y="93.07" width="4.96" height="4.96" transform="translate(82.31 -7.62) rotate(45)"/><rect class="cls-3" x="43.2" y="102.42" width="4.96" height="4.96" transform="translate(87.55 -1.57) rotate(45)"/><path class="cls-4" d="M54.3,18.87v0l-.24-.23-.2-.22c-.14-.14-.29-.26-.43-.39L44.36,9.21l-9,9-.21.19-.18.2-29,29,.07.08A13.22,13.22,0,0,0,7.1,65.15h0L35.15,93.21a26.45,26.45,0,0,1,0-37.41L53.86,37.09A13.21,13.21,0,0,0,54.3,18.87ZM49.8,33a7.48,7.48,0,1,1,0-10.58A7.48,7.48,0,0,1,49.8,33Z"/><path class="cls-5" d="M76.68,55.2a26.45,26.45,0,0,0,0-37.41L72,22.47l2.34,2.33-7,7,3.51,3.51-7,7Z"/><rect class="cls-5" x="58.17" y="32.02" width="6.61" height="6.61" transform="translate(79.97 103.78) rotate(-135)"/><rect class="cls-5" x="61.68" y="21.5" width="6.61" height="6.61" transform="translate(93.4 88.3) rotate(-135)"/><rect class="cls-5" x="67.52" y="10.98" width="6.61" height="6.61" transform="translate(110.82 74.47) rotate(-135)"/><rect class="cls-5" x="59" y="12.97" width="4.96" height="4.96" transform="translate(94.02 69.85) rotate(-135)"/><rect class="cls-5" x="63.67" y="3.62" width="4.96" height="4.96" transform="translate(108.62 57.19) rotate(-135)"/><path class="cls-6" d="M104.73,45.85l-28-28.06a26.45,26.45,0,0,1,0,37.41L58,73.91h0a13.21,13.21,0,0,0,0,18.7l.09.08h0l9.44,9.13,38.4-38.44-.07-.08A13.22,13.22,0,0,0,104.73,45.85Z"/></svg>